<svg fill="white" id="Capa_1" enable-background="new 0 0 512 512" height="512" viewBox="0 0 512 512" width="512" xmlns="http://www.w3.org/2000/svg"><g><path d="m162.371 429.234h187.259v82.766h-187.259z"/><path d="m413.393 429.234h-33.763v82.766h63.763v-52.766c0-16.568-13.432-30-30-30z"/><path d="m68.607 459.234v52.766h63.763v-82.766h-33.763c-16.568 0-30 13.432-30 30z"/><path d="m330.367 132.362h-55.807v-30h55.807v-21.615l-.005-.002-10.445-56.224c-2.64-14.213-15.04-24.521-29.495-24.521h-68.853c-14.455 0-26.855 10.308-29.495 24.521l-10.44 56.198v21.644h55.807v30h-55.807v266.872h148.733z"/><path d="m400.85 329.234-10.488-97.487 16.746-88.622c2.5-13.23-4.12-26.505-16.192-32.468l-30.55-15.091v303.667h40.483v-69.999z"/><path d="m104.892 143.124 16.747 88.623-10.488 97.487v70h40.483v-303.671l-30.551 15.093c-12.072 5.964-18.691 19.239-16.191 32.468z"/></g></svg>